<mxfile host="Electron" modified="2024-04-28T16:58:03.135Z" agent="Mozilla/5.0 (Windows NT 10.0; Win64; x64) AppleWebKit/537.36 (KHTML, like Gecko) draw.io/24.2.5 Chrome/120.0.6099.109 Electron/28.1.0 Safari/537.36" etag="IY09aq8TwnuPLYmOnUkh" version="24.2.5" type="device">
  <diagram name="Page-1" id="2YBvvXClWsGukQMizWep">
    <mxGraphModel dx="800" dy="484" grid="1" gridSize="10" guides="1" tooltips="1" connect="1" arrows="1" fold="1" page="1" pageScale="1" pageWidth="850" pageHeight="1100" math="0" shadow="0">
      <root>
        <mxCell id="0" />
        <mxCell id="1" parent="0" />
        <mxCell id="oAs6rdQNn-yY07NJKpq1-2" value="&lt;div&gt;&lt;br/&gt;&lt;/div&gt;" style="rounded=0;whiteSpace=wrap;html=1;fillColor=#d5e8d4;strokeColor=#000000;" vertex="1" parent="1">
          <mxGeometry x="80" y="140" width="590" height="450" as="geometry" />
        </mxCell>
        <mxCell id="oAs6rdQNn-yY07NJKpq1-3" value="hatás" style="text;html=1;align=center;verticalAlign=middle;whiteSpace=wrap;rounded=0;fillColor=#fff2cc;strokeColor=#000000;" vertex="1" parent="1">
          <mxGeometry x="80" y="140" width="60" height="30" as="geometry" />
        </mxCell>
        <mxCell id="oAs6rdQNn-yY07NJKpq1-4" value="&lt;b&gt;: Bolygó&lt;/b&gt;" style="rounded=0;whiteSpace=wrap;html=1;" vertex="1" parent="1">
          <mxGeometry x="170" y="180" width="100" height="30" as="geometry" />
        </mxCell>
        <mxCell id="oAs6rdQNn-yY07NJKpq1-5" value="&lt;b&gt;: Növény&lt;sup&gt;m&lt;/sup&gt;&lt;/b&gt;" style="rounded=0;whiteSpace=wrap;html=1;" vertex="1" parent="1">
          <mxGeometry x="490" y="180" width="100" height="30" as="geometry" />
        </mxCell>
        <mxCell id="oAs6rdQNn-yY07NJKpq1-6" value="&lt;b&gt;: Sugárzás&lt;/b&gt;" style="rounded=0;whiteSpace=wrap;html=1;" vertex="1" parent="1">
          <mxGeometry x="325" y="180" width="100" height="30" as="geometry" />
        </mxCell>
        <mxCell id="oAs6rdQNn-yY07NJKpq1-9" value="" style="endArrow=none;dashed=1;html=1;rounded=0;entryX=0.5;entryY=1;entryDx=0;entryDy=0;dashPattern=8 8;" edge="1" parent="1" target="oAs6rdQNn-yY07NJKpq1-4">
          <mxGeometry width="50" height="50" relative="1" as="geometry">
            <mxPoint x="220" y="600" as="sourcePoint" />
            <mxPoint x="400" y="340" as="targetPoint" />
          </mxGeometry>
        </mxCell>
        <mxCell id="oAs6rdQNn-yY07NJKpq1-10" value="" style="endArrow=none;dashed=1;html=1;rounded=0;entryX=0.5;entryY=1;entryDx=0;entryDy=0;dashPattern=8 8;" edge="1" parent="1">
          <mxGeometry width="50" height="50" relative="1" as="geometry">
            <mxPoint x="540" y="600" as="sourcePoint" />
            <mxPoint x="539.5799999999999" y="210" as="targetPoint" />
          </mxGeometry>
        </mxCell>
        <mxCell id="oAs6rdQNn-yY07NJKpq1-11" value="" style="endArrow=none;dashed=1;html=1;rounded=0;entryX=0.5;entryY=1;entryDx=0;entryDy=0;dashPattern=8 8;" edge="1" parent="1" target="oAs6rdQNn-yY07NJKpq1-6">
          <mxGeometry width="50" height="50" relative="1" as="geometry">
            <mxPoint x="375" y="600" as="sourcePoint" />
            <mxPoint x="374.58000000000004" y="240" as="targetPoint" />
          </mxGeometry>
        </mxCell>
        <mxCell id="oAs6rdQNn-yY07NJKpq1-24" value="&lt;font style=&quot;font-size: 10px;&quot;&gt;maiSugárzás&lt;/font&gt;&lt;font style=&quot;font-size: 10px;&quot;&gt;()&lt;/font&gt;" style="text;html=1;align=center;verticalAlign=middle;whiteSpace=wrap;rounded=0;" vertex="1" parent="1">
          <mxGeometry x="240" y="250" width="60" height="20" as="geometry" />
        </mxCell>
        <mxCell id="oAs6rdQNn-yY07NJKpq1-25" value="" style="endArrow=classic;html=1;rounded=0;edgeStyle=orthogonalEdgeStyle;exitX=0.316;exitY=-0.013;exitDx=0;exitDy=0;exitPerimeter=0;" edge="1" parent="1" source="oAs6rdQNn-yY07NJKpq1-32">
          <mxGeometry width="50" height="50" relative="1" as="geometry">
            <mxPoint x="220" y="300" as="sourcePoint" />
            <mxPoint x="230" y="360" as="targetPoint" />
            <Array as="points">
              <mxPoint x="225" y="340" />
              <mxPoint x="270" y="340" />
              <mxPoint x="270" y="360" />
            </Array>
          </mxGeometry>
        </mxCell>
        <mxCell id="oAs6rdQNn-yY07NJKpq1-26" value="&lt;font style=&quot;font-size: 10px;&quot;&gt;NapiCiklus&lt;/font&gt;()" style="text;html=1;align=center;verticalAlign=middle;whiteSpace=wrap;rounded=0;" vertex="1" parent="1">
          <mxGeometry x="230" y="330" width="60" height="10" as="geometry" />
        </mxCell>
        <mxCell id="oAs6rdQNn-yY07NJKpq1-31" value="" style="endArrow=classic;html=1;rounded=0;edgeStyle=orthogonalEdgeStyle;entryX=1.004;entryY=0.225;entryDx=0;entryDy=0;entryPerimeter=0;" edge="1" parent="1" target="oAs6rdQNn-yY07NJKpq1-37">
          <mxGeometry width="50" height="50" relative="1" as="geometry">
            <mxPoint x="220" y="270" as="sourcePoint" />
            <mxPoint x="230" y="280" as="targetPoint" />
            <Array as="points">
              <mxPoint x="270" y="270" />
              <mxPoint x="270" y="291" />
            </Array>
          </mxGeometry>
        </mxCell>
        <mxCell id="oAs6rdQNn-yY07NJKpq1-34" value="" style="rounded=0;whiteSpace=wrap;html=1;rotation=90;" vertex="1" parent="1">
          <mxGeometry x="352.5" y="302.5" width="45" height="10" as="geometry" />
        </mxCell>
        <mxCell id="oAs6rdQNn-yY07NJKpq1-35" value="" style="endArrow=none;dashed=1;html=1;rounded=0;entryX=0.5;entryY=1;entryDx=0;entryDy=0;dashPattern=8 8;" edge="1" parent="1" target="oAs6rdQNn-yY07NJKpq1-33">
          <mxGeometry width="50" height="50" relative="1" as="geometry">
            <mxPoint x="539.5799999999999" y="500" as="sourcePoint" />
            <mxPoint x="539.5799999999999" y="210" as="targetPoint" />
          </mxGeometry>
        </mxCell>
        <mxCell id="oAs6rdQNn-yY07NJKpq1-65" style="edgeStyle=orthogonalEdgeStyle;rounded=0;orthogonalLoop=1;jettySize=auto;html=1;entryX=1;entryY=0.75;entryDx=0;entryDy=0;exitX=0.792;exitY=0.914;exitDx=0;exitDy=0;exitPerimeter=0;" edge="1" parent="1">
          <mxGeometry relative="1" as="geometry">
            <mxPoint x="535.8600000000001" y="453.4900000000001" as="sourcePoint" />
            <mxPoint x="380" y="456.51" as="targetPoint" />
            <Array as="points">
              <mxPoint x="536" y="456.49" />
            </Array>
          </mxGeometry>
        </mxCell>
        <mxCell id="oAs6rdQNn-yY07NJKpq1-66" value="változik()" style="edgeLabel;html=1;align=center;verticalAlign=middle;resizable=0;points=[];" vertex="1" connectable="0" parent="oAs6rdQNn-yY07NJKpq1-65">
          <mxGeometry x="0.0633" y="1" relative="1" as="geometry">
            <mxPoint as="offset" />
          </mxGeometry>
        </mxCell>
        <mxCell id="oAs6rdQNn-yY07NJKpq1-33" value="" style="rounded=0;whiteSpace=wrap;html=1;rotation=90;" vertex="1" parent="1">
          <mxGeometry x="465.79" y="431.72" width="148.43" height="10" as="geometry" />
        </mxCell>
        <mxCell id="oAs6rdQNn-yY07NJKpq1-36" value="" style="endArrow=none;dashed=1;html=1;rounded=0;entryX=0.5;entryY=1;entryDx=0;entryDy=0;dashPattern=8 8;" edge="1" parent="1" target="oAs6rdQNn-yY07NJKpq1-32">
          <mxGeometry width="50" height="50" relative="1" as="geometry">
            <mxPoint x="220" y="500" as="sourcePoint" />
            <mxPoint x="220" y="210" as="targetPoint" />
          </mxGeometry>
        </mxCell>
        <mxCell id="oAs6rdQNn-yY07NJKpq1-32" value="" style="rounded=0;whiteSpace=wrap;html=1;rotation=90;" vertex="1" parent="1">
          <mxGeometry x="61.74" y="413.27" width="316.55" height="10" as="geometry" />
        </mxCell>
        <mxCell id="oAs6rdQNn-yY07NJKpq1-37" value="" style="rounded=0;whiteSpace=wrap;html=1;" vertex="1" parent="1">
          <mxGeometry x="220" y="280" width="10" height="50" as="geometry" />
        </mxCell>
        <mxCell id="oAs6rdQNn-yY07NJKpq1-39" style="edgeStyle=orthogonalEdgeStyle;rounded=0;orthogonalLoop=1;jettySize=auto;html=1;" edge="1" parent="1" source="oAs6rdQNn-yY07NJKpq1-37">
          <mxGeometry relative="1" as="geometry">
            <mxPoint x="369" y="300" as="targetPoint" />
            <Array as="points">
              <mxPoint x="369" y="300" />
            </Array>
          </mxGeometry>
        </mxCell>
        <mxCell id="oAs6rdQNn-yY07NJKpq1-40" value="getAlfaIgény" style="edgeLabel;html=1;align=center;verticalAlign=middle;resizable=0;points=[];" vertex="1" connectable="0" parent="oAs6rdQNn-yY07NJKpq1-39">
          <mxGeometry x="-0.2086" relative="1" as="geometry">
            <mxPoint as="offset" />
          </mxGeometry>
        </mxCell>
        <mxCell id="oAs6rdQNn-yY07NJKpq1-41" style="edgeStyle=orthogonalEdgeStyle;rounded=0;orthogonalLoop=1;jettySize=auto;html=1;" edge="1" parent="1">
          <mxGeometry relative="1" as="geometry">
            <mxPoint x="230" y="320" as="sourcePoint" />
            <mxPoint x="369" y="320" as="targetPoint" />
            <Array as="points">
              <mxPoint x="369" y="320" />
            </Array>
          </mxGeometry>
        </mxCell>
        <mxCell id="oAs6rdQNn-yY07NJKpq1-42" value="getAlfaIgény" style="edgeLabel;html=1;align=center;verticalAlign=middle;resizable=0;points=[];labelBackgroundColor=default;" vertex="1" connectable="0" parent="oAs6rdQNn-yY07NJKpq1-41">
          <mxGeometry x="-0.2086" relative="1" as="geometry">
            <mxPoint as="offset" />
          </mxGeometry>
        </mxCell>
        <mxCell id="oAs6rdQNn-yY07NJKpq1-43" value="" style="rounded=0;whiteSpace=wrap;html=1;" vertex="1" parent="1">
          <mxGeometry x="220" y="350" width="10" height="160" as="geometry" />
        </mxCell>
        <mxCell id="oAs6rdQNn-yY07NJKpq1-46" style="edgeStyle=orthogonalEdgeStyle;rounded=0;orthogonalLoop=1;jettySize=auto;html=1;entryX=0.079;entryY=0.901;entryDx=0;entryDy=0;entryPerimeter=0;" edge="1" parent="1" source="oAs6rdQNn-yY07NJKpq1-43" target="oAs6rdQNn-yY07NJKpq1-33">
          <mxGeometry relative="1" as="geometry">
            <Array as="points">
              <mxPoint x="533" y="374" />
            </Array>
          </mxGeometry>
        </mxCell>
        <mxCell id="oAs6rdQNn-yY07NJKpq1-47" value="Él()" style="edgeLabel;html=1;align=center;verticalAlign=middle;resizable=0;points=[];" vertex="1" connectable="0" parent="oAs6rdQNn-yY07NJKpq1-46">
          <mxGeometry x="-0.2447" relative="1" as="geometry">
            <mxPoint as="offset" />
          </mxGeometry>
        </mxCell>
        <mxCell id="oAs6rdQNn-yY07NJKpq1-53" style="edgeStyle=orthogonalEdgeStyle;rounded=0;orthogonalLoop=1;jettySize=auto;html=1;entryX=0.9;entryY=0.449;entryDx=0;entryDy=0;entryPerimeter=0;exitX=0.667;exitY=1.015;exitDx=0;exitDy=0;exitPerimeter=0;dashed=1;dashPattern=8 8;" edge="1" parent="1">
          <mxGeometry relative="1" as="geometry">
            <mxPoint x="535.8499999999999" y="420.18999999999994" as="sourcePoint" />
            <mxPoint x="229.9999999999999" y="420" as="targetPoint" />
            <Array as="points">
              <mxPoint x="501" y="420.1" />
            </Array>
          </mxGeometry>
        </mxCell>
        <mxCell id="oAs6rdQNn-yY07NJKpq1-54" style="edgeStyle=orthogonalEdgeStyle;rounded=0;orthogonalLoop=1;jettySize=auto;html=1;entryX=0.9;entryY=0.449;entryDx=0;entryDy=0;entryPerimeter=0;exitX=0.667;exitY=1.015;exitDx=0;exitDy=0;exitPerimeter=0;dashed=1;dashPattern=8 8;" edge="1" parent="1">
          <mxGeometry relative="1" as="geometry">
            <mxPoint x="536" y="490.03" as="sourcePoint" />
            <mxPoint x="230" y="490.03" as="targetPoint" />
            <Array as="points">
              <mxPoint x="501" y="490.03" />
            </Array>
          </mxGeometry>
        </mxCell>
        <mxCell id="oAs6rdQNn-yY07NJKpq1-55" value="&lt;font style=&quot;font-size: 12px;&quot;&gt;case of plant life&lt;/font&gt;" style="shape=umlFrame;whiteSpace=wrap;html=1;pointerEvents=0;" vertex="1" parent="1">
          <mxGeometry x="150" y="400" width="410" height="100" as="geometry" />
        </mxCell>
        <mxCell id="oAs6rdQNn-yY07NJKpq1-56" value="" style="endArrow=none;dashed=1;html=1;dashPattern=1 3;strokeWidth=2;rounded=0;exitX=0.002;exitY=0.732;exitDx=0;exitDy=0;exitPerimeter=0;entryX=1;entryY=0.737;entryDx=0;entryDy=0;entryPerimeter=0;" edge="1" parent="1">
          <mxGeometry width="50" height="50" relative="1" as="geometry">
            <mxPoint x="150.81999999999994" y="469.99999999999994" as="sourcePoint" />
            <mxPoint x="560" y="470.49999999999994" as="targetPoint" />
          </mxGeometry>
        </mxCell>
        <mxCell id="oAs6rdQNn-yY07NJKpq1-57" value="&lt;b&gt;[if still alive]&lt;/b&gt;" style="text;html=1;align=center;verticalAlign=middle;whiteSpace=wrap;rounded=0;fontSize=10;" vertex="1" parent="1">
          <mxGeometry x="130" y="440" width="100" height="30" as="geometry" />
        </mxCell>
        <mxCell id="oAs6rdQNn-yY07NJKpq1-58" value="&lt;b&gt;&amp;nbsp; [if is not alive]&lt;/b&gt;" style="text;html=1;align=center;verticalAlign=middle;whiteSpace=wrap;rounded=0;fontSize=10;" vertex="1" parent="1">
          <mxGeometry x="130" y="470" width="100" height="30" as="geometry" />
        </mxCell>
        <mxCell id="oAs6rdQNn-yY07NJKpq1-60" style="edgeStyle=orthogonalEdgeStyle;rounded=0;orthogonalLoop=1;jettySize=auto;html=1;" edge="1" parent="1" source="oAs6rdQNn-yY07NJKpq1-43">
          <mxGeometry relative="1" as="geometry">
            <mxPoint x="532" y="440" as="targetPoint" />
            <Array as="points">
              <mxPoint x="532" y="440" />
            </Array>
          </mxGeometry>
        </mxCell>
        <mxCell id="oAs6rdQNn-yY07NJKpq1-61" value="kölcsönhatás()" style="edgeLabel;html=1;align=center;verticalAlign=middle;resizable=0;points=[];" vertex="1" connectable="0" parent="oAs6rdQNn-yY07NJKpq1-60">
          <mxGeometry x="-0.3411" y="-1" relative="1" as="geometry">
            <mxPoint as="offset" />
          </mxGeometry>
        </mxCell>
        <mxCell id="oAs6rdQNn-yY07NJKpq1-63" value="" style="rounded=0;whiteSpace=wrap;html=1;" vertex="1" parent="1">
          <mxGeometry x="370" y="445" width="10" height="20" as="geometry" />
        </mxCell>
        <mxCell id="oAs6rdQNn-yY07NJKpq1-67" value="&lt;font style=&quot;font-size: 9px;&quot;&gt;&lt;b&gt;loop &lt;/b&gt;&quot;for evry X in Nöény&lt;sup&gt;m&lt;/sup&gt;&quot;&lt;/font&gt;" style="shape=umlFrame;whiteSpace=wrap;html=1;pointerEvents=0;" vertex="1" parent="1">
          <mxGeometry x="120" y="350" width="470" height="160" as="geometry" />
        </mxCell>
        <mxCell id="oAs6rdQNn-yY07NJKpq1-68" value="&lt;font style=&quot;font-size: 9px;&quot;&gt;&lt;b&gt;loop &lt;/b&gt;&quot;from i to days&quot;&lt;/font&gt;" style="shape=umlFrame;whiteSpace=wrap;html=1;pointerEvents=0;labelBackgroundColor=none;" vertex="1" parent="1">
          <mxGeometry x="100" y="253.75" width="550" height="266.25" as="geometry" />
        </mxCell>
        <mxCell id="oAs6rdQNn-yY07NJKpq1-70" value="" style="html=1;points=[[0,0,0,0,5],[0,1,0,0,-5],[1,0,0,0,5],[1,1,0,0,-5]];perimeter=orthogonalPerimeter;outlineConnect=0;targetShapes=umlLifeline;portConstraint=eastwest;newEdgeStyle={&quot;curved&quot;:0,&quot;rounded&quot;:0};" vertex="1" parent="1">
          <mxGeometry x="220" y="550" width="10" height="20" as="geometry" />
        </mxCell>
        <mxCell id="oAs6rdQNn-yY07NJKpq1-71" value="legerősebb()" style="html=1;align=left;spacingLeft=2;endArrow=block;rounded=0;edgeStyle=orthogonalEdgeStyle;curved=0;rounded=0;" edge="1" target="oAs6rdQNn-yY07NJKpq1-70" parent="1">
          <mxGeometry relative="1" as="geometry">
            <mxPoint x="225" y="530" as="sourcePoint" />
            <Array as="points">
              <mxPoint x="255" y="560" />
            </Array>
          </mxGeometry>
        </mxCell>
      </root>
    </mxGraphModel>
  </diagram>
</mxfile>
